<svg xmlns="http://www.w3.org/2000/svg" width="19.391" height="20" viewBox="0 0 19.391 20">
  <path id="Icon_awesome-facebook-square" data-name="Icon awesome-facebook-square" d="M17.314,2.25H2.078A2.111,2.111,0,0,0,0,4.393V20.107A2.111,2.111,0,0,0,2.078,22.25H8.018v-6.8H5.291v-3.2H8.018V9.811c0-2.775,1.6-4.307,4.054-4.307a16.033,16.033,0,0,1,2.4.216V8.443H13.122a1.577,1.577,0,0,0-1.75,1.729V12.25H14.35l-.476,3.2h-2.5v6.8h5.941a2.111,2.111,0,0,0,2.078-2.143V4.393A2.111,2.111,0,0,0,17.314,2.25Z" transform="translate(0 -2.25)" fill="#fff"/>
</svg>
