<svg xmlns="http://www.w3.org/2000/svg" width="64.286" height="50" viewBox="0 0 64.286 50">
  <path id="Icon_awesome-credit-card" data-name="Icon awesome-credit-card" d="M0,46.893A5.359,5.359,0,0,0,5.357,52.25H58.929a5.359,5.359,0,0,0,5.357-5.357V27.25H0ZM21.429,39.3a1.343,1.343,0,0,1,1.339-1.339H37.946A1.343,1.343,0,0,1,39.286,39.3v4.464a1.343,1.343,0,0,1-1.339,1.339H22.768a1.343,1.343,0,0,1-1.339-1.339Zm-14.286,0a1.343,1.343,0,0,1,1.339-1.339h8.036A1.343,1.343,0,0,1,17.857,39.3v4.464a1.343,1.343,0,0,1-1.339,1.339H8.482a1.343,1.343,0,0,1-1.339-1.339Zm57.143-31.7v5.357H0V7.607A5.359,5.359,0,0,1,5.357,2.25H58.929A5.359,5.359,0,0,1,64.286,7.607Z" transform="translate(0 -2.25)" fill="#fff"/>
</svg>
