<svg xmlns="http://www.w3.org/2000/svg" width="50" height="50" viewBox="0 0 50 50">
  <path id="Icon_awesome-check-square" data-name="Icon awesome-check-square" d="M44.643,52.25H5.357A5.357,5.357,0,0,1,0,46.893V7.607A5.357,5.357,0,0,1,5.357,2.25H44.643A5.357,5.357,0,0,1,50,7.607V46.893A5.357,5.357,0,0,1,44.643,52.25ZM21.8,41.306,42.334,20.77a1.786,1.786,0,0,0,0-2.525L39.809,15.72a1.786,1.786,0,0,0-2.525,0L20.536,32.467l-7.819-7.819a1.786,1.786,0,0,0-2.525,0L7.666,27.173a1.786,1.786,0,0,0,0,2.525L19.273,41.306A1.786,1.786,0,0,0,21.8,41.306Z" transform="translate(0 -2.25)" fill="#fff"/>
</svg>
