<svg xmlns="http://www.w3.org/2000/svg" width="62.5" height="50" viewBox="0 0 62.5 50">
  <path id="Icon_awesome-truck" data-name="Icon awesome-truck" d="M60.938,34.375H59.375V23.818A4.688,4.688,0,0,0,58,20.508l-9.756-9.756a4.688,4.688,0,0,0-3.311-1.377H40.625V4.688A4.689,4.689,0,0,0,35.938,0H4.688A4.689,4.689,0,0,0,0,4.688v31.25a4.689,4.689,0,0,0,4.688,4.687H6.25a9.375,9.375,0,1,0,18.75,0H37.5a9.375,9.375,0,0,0,18.75,0h4.688A1.567,1.567,0,0,0,62.5,39.063V35.938A1.567,1.567,0,0,0,60.938,34.375ZM15.625,45.313a4.687,4.687,0,1,1,4.687-4.687A4.689,4.689,0,0,1,15.625,45.313Zm31.25,0a4.687,4.687,0,1,1,4.688-4.687A4.689,4.689,0,0,1,46.875,45.313ZM54.688,25H40.625V14.063h4.307l9.756,9.756Z" fill="#fff"/>
</svg>
